<?xml version="1.0" standalone="no"?>
<!DOCTYPE svg PUBLIC "-//W3C//DTD SVG 20010904//EN"
 "http://www.w3.org/TR/2001/REC-SVG-20010904/DTD/svg10.dtd">
<svg version="1.0" xmlns="http://www.w3.org/2000/svg"
 width="803.000000pt" height="803.000000pt" viewBox="0 0 803.000000 803.000000"
 preserveAspectRatio="xMidYMid meet">
<metadata>
Created by potrace 1.14, written by Peter Selinger 2001-2017
</metadata>
<g transform="translate(0.000000,803.000000) scale(0.100000,-0.100000)"
fill="#000000" stroke="none">
<path d="M3808 8025 c-2 -1 -48 -5 -103 -9 -55 -4 -113 -9 -130 -11 -16 -2
-70 -9 -120 -16 -49 -6 -99 -13 -110 -15 -134 -26 -186 -36 -233 -48 -32 -8
-68 -17 -82 -20 -81 -15 -394 -115 -475 -151 -16 -7 -75 -32 -130 -55 -337
-141 -693 -362 -1005 -623 -88 -74 -360 -340 -422 -413 -89 -106 -204 -253
-265 -339 -138 -194 -303 -486 -393 -695 -18 -41 -38 -88 -45 -105 -49 -111
-116 -316 -164 -495 -28 -106 -33 -129 -47 -200 -4 -24 -8 -46 -19 -100 -3
-14 -7 -41 -10 -60 -3 -19 -7 -46 -10 -59 -2 -13 -7 -49 -10 -80 -4 -31 -8
-67 -10 -80 -26 -160 -26 -688 0 -876 3 -16 7 -50 9 -75 18 -156 70 -408 122
-590 148 -517 412 -1023 747 -1430 94 -115 137 -161 286 -310 560 -558 1247
-928 2026 -1089 55 -11 118 -23 140 -26 22 -3 49 -7 60 -9 12 -2 48 -7 80 -11
33 -4 69 -9 79 -11 134 -24 735 -24 889 1 12 2 45 6 72 10 51 6 86 11 140 20
17 3 46 8 65 11 154 24 439 102 630 171 469 169 928 439 1295 762 68 60 337
333 390 395 235 278 386 505 543 817 141 278 257 593 321 869 25 105 67 336
76 410 3 30 8 71 10 90 15 126 19 212 19 420 0 204 -8 401 -19 458 -1 10 -6
45 -10 77 -4 33 -9 67 -11 77 -1 9 -6 38 -10 65 -5 26 -9 50 -9 53 -1 3 -5 25
-9 50 -12 63 -13 70 -26 120 -6 25 -13 59 -16 75 -11 57 -103 351 -143 457
-170 448 -430 880 -741 1233 -66 75 -325 331 -390 386 -35 30 -71 60 -79 67
-20 19 -193 149 -271 204 -173 122 -551 330 -695 383 -27 10 -54 22 -60 25 -5
4 -23 12 -40 18 -215 76 -275 97 -365 123 -58 17 -112 33 -120 34 -8 2 -67 15
-130 29 -114 25 -259 51 -335 60 -22 3 -65 8 -95 12 -30 3 -75 8 -100 10 -55
5 -537 13 -542 9z"/>
</g>
</svg>
